<svg width="128" height="128" viewBox="0 0 128 128" fill="none" xmlns="http://www.w3.org/2000/svg">
  <path d="M87.8 67.7C87.7 56.9 96.6 51.6 97 51.4C92 44.1 84.2 43.1 81.5 43C75 42.3 68.7 46.8 65.4 46.8C62 46.8 56.9 43.1 51.4 43.2C44.2 43.3 37.6 47.4 33.9 53.9C26.3 67 31.9 86.3 39.2 96.9C42.9 102.1 47.2 107.9 52.8 107.7C58.2 107.5 60.2 104.2 66.8 104.2C73.3 104.2 75.2 107.7 80.9 107.6C86.8 107.5 90.4 102.4 94 97.1C98.2 91.1 99.9 85.2 100 84.9C99.9 84.8 87.9 80.2 87.8 67.7Z" fill="white"/>
  <path d="M77.2 36.1C80.2 32.5 82.2 27.5 81.7 22.5C77.3 22.7 71.9 25.4 68.8 29C66 32.2 63.5 37.4 64.1 42.2C69 42.6 74.1 39.7 77.2 36.1Z" fill="white"/>
</svg>
